<svg width="37" height="38" viewBox="0 0 37 38" fill="none" xmlns="http://www.w3.org/2000/svg">
<g clip-path="url(#clip0_42231_461)">
<path d="M0.000455961 21.6836L0.0910152 7.8662C0.107409 5.36499 1.83225 3.22227 4.21466 2.74354L17.3757 0.0988954C20.5384 -0.536634 23.4733 1.97211 23.4516 5.29254L23.361 19.1099C23.3446 21.6111 21.6198 23.7538 19.2374 24.2326L6.07628 26.8772C2.91357 27.5127 -0.0213059 25.004 0.000455961 21.6836Z" fill="#A881E6" fill-opacity="0.2"/>
<path d="M6.44836 27.1936L6.53891 13.3762C6.55532 10.875 8.28016 8.73228 10.6626 8.25355L23.8237 5.6089C26.9864 4.97338 29.9213 7.48212 29.8995 10.8025L29.8089 24.6199C29.7926 27.1211 28.0676 29.2639 25.6853 29.7426L12.5242 32.3873C9.36147 33.0228 6.4266 30.514 6.44836 27.1936Z" fill="#A881E6" fill-opacity="0.5"/>
<path d="M12.8965 32.7086L12.9872 18.8913C13.0035 16.39 14.7284 14.2473 17.1107 13.7685L30.2718 11.1239C33.4345 10.4884 36.3695 12.9971 36.3477 16.3175L36.2572 30.1349C36.2407 32.6361 34.5159 34.7788 32.1335 35.2576L18.9724 37.9022C15.8097 38.5377 12.8748 36.029 12.8965 32.7086Z" fill="#A881E6" fill-opacity="0.8"/>
</g>
<defs>
<clipPath id="clip0_42231_461">
<rect width="36.3478" height="38" fill="white"/>
</clipPath>
</defs>
</svg>
