<svg width="151" height="40" viewBox="0 0 151 40" fill="none" xmlns="http://www.w3.org/2000/svg">
<g clip-path="url(#clip0_42231_460)">
<path d="M0.000455961 22.6836L0.0910152 8.8662C0.107409 6.36499 1.83225 4.22227 4.21466 3.74354L17.3757 1.0989C20.5384 0.463366 23.4733 2.97211 23.4516 6.29254L23.361 20.1099C23.3446 22.6111 21.6198 24.7538 19.2374 25.2326L6.07628 27.8772C2.91357 28.5127 -0.0213059 26.004 0.000455961 22.6836Z" fill="#6100FF" fill-opacity="0.2"/>
<path d="M6.44836 28.1936L6.53891 14.3762C6.55532 11.875 8.28016 9.73228 10.6626 9.25355L23.8237 6.6089C26.9864 5.97338 29.9213 8.48212 29.8995 11.8025L29.8089 25.6199C29.7926 28.1211 28.0676 30.2639 25.6853 30.7426L12.5242 33.3873C9.36147 34.0228 6.4266 31.514 6.44836 28.1936Z" fill="#6100FF" fill-opacity="0.5"/>
<path d="M12.8965 33.7086L12.9872 19.8913C13.0035 17.39 14.7284 15.2473 17.1107 14.7685L30.2718 12.1239C33.4345 11.4884 36.3695 13.9971 36.3477 17.3175L36.2572 31.1349C36.2407 33.6361 34.5159 35.7788 32.1335 36.2576L18.9724 38.9022C15.8097 39.5377 12.8748 37.029 12.8965 33.7086Z" fill="#6100FF" fill-opacity="0.8"/>
</g>
<path d="M53.2478 29.175C51.9645 29.175 50.8145 28.9667 49.7978 28.55C48.7812 28.1333 47.9645 27.5167 47.3478 26.7C46.7478 25.8833 46.4312 24.9 46.3978 23.75H50.9478C51.0145 24.4 51.2395 24.9 51.6228 25.25C52.0062 25.5833 52.5062 25.75 53.1228 25.75C53.7562 25.75 54.2562 25.6083 54.6228 25.325C54.9895 25.025 55.1728 24.6167 55.1728 24.1C55.1728 23.6667 55.0228 23.3083 54.7228 23.025C54.4395 22.7417 54.0812 22.5083 53.6478 22.325C53.2312 22.1417 52.6312 21.9333 51.8478 21.7C50.7145 21.35 49.7895 21 49.0728 20.65C48.3562 20.3 47.7395 19.7833 47.2228 19.1C46.7062 18.4167 46.4478 17.525 46.4478 16.425C46.4478 14.7917 47.0395 13.5167 48.2228 12.6C49.4062 11.6667 50.9478 11.2 52.8478 11.2C54.7812 11.2 56.3395 11.6667 57.5228 12.6C58.7062 13.5167 59.3395 14.8 59.4228 16.45H54.7978C54.7645 15.8833 54.5562 15.4417 54.1728 15.125C53.7895 14.7917 53.2978 14.625 52.6978 14.625C52.1812 14.625 51.7645 14.7667 51.4478 15.05C51.1312 15.3167 50.9728 15.7083 50.9728 16.225C50.9728 16.7917 51.2395 17.2333 51.7728 17.55C52.3062 17.8667 53.1395 18.2083 54.2728 18.575C55.4062 18.9583 56.3228 19.325 57.0228 19.675C57.7395 20.025 58.3562 20.5333 58.8728 21.2C59.3895 21.8667 59.6478 22.725 59.6478 23.775C59.6478 24.775 59.3895 25.6833 58.8728 26.5C58.3728 27.3167 57.6395 27.9667 56.6728 28.45C55.7062 28.9333 54.5645 29.175 53.2478 29.175ZM70.5787 29.175C68.9287 29.175 67.412 28.7917 66.0287 28.025C64.662 27.2583 63.5704 26.1917 62.7537 24.825C61.9537 23.4417 61.5537 21.8917 61.5537 20.175C61.5537 18.4583 61.9537 16.9167 62.7537 15.55C63.5704 14.1833 64.662 13.1167 66.0287 12.35C67.412 11.5833 68.9287 11.2 70.5787 11.2C72.2287 11.2 73.737 11.5833 75.1037 12.35C76.487 13.1167 77.5704 14.1833 78.3537 15.55C79.1537 16.9167 79.5537 18.4583 79.5537 20.175C79.5537 21.8917 79.1537 23.4417 78.3537 24.825C77.5537 26.1917 76.4704 27.2583 75.1037 28.025C73.737 28.7917 72.2287 29.175 70.5787 29.175ZM70.5787 25.275C71.9787 25.275 73.0954 24.8083 73.9287 23.875C74.7787 22.9417 75.2037 21.7083 75.2037 20.175C75.2037 18.625 74.7787 17.3917 73.9287 16.475C73.0954 15.5417 71.9787 15.075 70.5787 15.075C69.162 15.075 68.0287 15.5333 67.1787 16.45C66.3454 17.3667 65.9287 18.6083 65.9287 20.175C65.9287 21.725 66.3454 22.9667 67.1787 23.9C68.0287 24.8167 69.162 25.275 70.5787 25.275ZM88.282 29.175C86.9987 29.175 85.8487 28.9667 84.832 28.55C83.8153 28.1333 82.9987 27.5167 82.382 26.7C81.782 25.8833 81.4653 24.9 81.432 23.75H85.982C86.0487 24.4 86.2737 24.9 86.657 25.25C87.0403 25.5833 87.5403 25.75 88.157 25.75C88.7903 25.75 89.2903 25.6083 89.657 25.325C90.0237 25.025 90.207 24.6167 90.207 24.1C90.207 23.6667 90.057 23.3083 89.757 23.025C89.4737 22.7417 89.1153 22.5083 88.682 22.325C88.2653 22.1417 87.6653 21.9333 86.882 21.7C85.7487 21.35 84.8237 21 84.107 20.65C83.3903 20.3 82.7737 19.7833 82.257 19.1C81.7403 18.4167 81.482 17.525 81.482 16.425C81.482 14.7917 82.0737 13.5167 83.257 12.6C84.4403 11.6667 85.982 11.2 87.882 11.2C89.8153 11.2 91.3737 11.6667 92.557 12.6C93.7403 13.5167 94.3737 14.8 94.457 16.45H89.832C89.7987 15.8833 89.5903 15.4417 89.207 15.125C88.8237 14.7917 88.332 14.625 87.732 14.625C87.2153 14.625 86.7987 14.7667 86.482 15.05C86.1653 15.3167 86.007 15.7083 86.007 16.225C86.007 16.7917 86.2737 17.2333 86.807 17.55C87.3403 17.8667 88.1737 18.2083 89.307 18.575C90.4403 18.9583 91.357 19.325 92.057 19.675C92.7737 20.025 93.3903 20.5333 93.907 21.2C94.4237 21.8667 94.682 22.725 94.682 23.775C94.682 24.775 94.4237 25.6833 93.907 26.5C93.407 27.3167 92.6737 27.9667 91.707 28.45C90.7403 28.9333 89.5987 29.175 88.282 29.175ZM114.036 11.45V14.875H106.886V18.575H112.236V21.9H106.886V29H102.611V11.45H114.036ZM115.433 22C115.433 20.5667 115.699 19.3083 116.233 18.225C116.783 17.1417 117.524 16.3083 118.458 15.725C119.391 15.1417 120.433 14.85 121.583 14.85C122.566 14.85 123.424 15.05 124.158 15.45C124.908 15.85 125.483 16.375 125.883 17.025V15.05H130.158V29H125.883V27.025C125.466 27.675 124.883 28.2 124.133 28.6C123.399 29 122.541 29.2 121.558 29.2C120.424 29.2 119.391 28.9083 118.458 28.325C117.524 27.725 116.783 26.8833 116.233 25.8C115.699 24.7 115.433 23.4333 115.433 22ZM125.883 22.025C125.883 20.9583 125.583 20.1167 124.983 19.5C124.399 18.8833 123.683 18.575 122.833 18.575C121.983 18.575 121.258 18.8833 120.658 19.5C120.074 20.1 119.783 20.9333 119.783 22C119.783 23.0667 120.074 23.9167 120.658 24.55C121.258 25.1667 121.983 25.475 122.833 25.475C123.683 25.475 124.399 25.1667 124.983 24.55C125.583 23.9333 125.883 23.0917 125.883 22.025ZM135.4 13.6C134.65 13.6 134.034 13.3833 133.55 12.95C133.084 12.5 132.85 11.95 132.85 11.3C132.85 10.6333 133.084 10.0833 133.55 9.65C134.034 9.2 134.65 8.975 135.4 8.975C136.134 8.975 136.734 9.2 137.2 9.65C137.684 10.0833 137.925 10.6333 137.925 11.3C137.925 11.95 137.684 12.5 137.2 12.95C136.734 13.3833 136.134 13.6 135.4 13.6ZM137.525 15.05V29H133.25V15.05H137.525ZM144.898 17.375C145.398 16.6083 146.023 16.0083 146.773 15.575C147.523 15.125 148.357 14.9 149.273 14.9V19.425H148.098C147.032 19.425 146.232 19.6583 145.698 20.125C145.165 20.575 144.898 21.375 144.898 22.525V29H140.623V15.05H144.898V17.375Z" fill="#FBF9FE"/>
<defs>
<clipPath id="clip0_42231_460">
<rect width="36.3478" height="38" fill="white" transform="translate(0 1)"/>
</clipPath>
</defs>
</svg>
